<svg width="33" height="32" viewBox="0 0 33 32" fill="none" xmlns="http://www.w3.org/2000/svg">
<path fill-rule="evenodd" clip-rule="evenodd" d="M12.734 20.1365L12.9266 20.1365L13.3533 20.1377C16.9777 20.1571 25.4681 20.4865 25.4681 26.0872C25.4681 31.2799 18.495 31.9738 13.0709 32L12.1148 31.9996C8.49041 31.9802 0 31.6509 0 26.0517C0 20.7492 7.26666 20.1365 12.734 20.1365ZM12.734 22.5614C5.89416 22.5614 2.42492 23.7367 2.42492 26.0517C2.42492 28.3893 5.89416 29.5759 12.734 29.5759C19.5739 29.5759 23.0432 28.4006 23.0432 26.0872C23.0432 23.7464 19.5739 22.5614 12.734 22.5614ZM27.8123 9.56823C28.4816 9.56823 29.0248 10.1114 29.0248 10.7807L29.0246 12.8084L31.1197 12.8097C31.789 12.8097 32.3322 13.3529 32.3322 14.0222C32.3322 14.6914 31.789 15.2346 31.1197 15.2346L29.0246 15.2333L29.0248 17.2649C29.0248 17.9342 28.4816 18.4774 27.8123 18.4774C27.143 18.4774 26.5999 17.9342 26.5999 17.2649L26.5997 15.2333L24.5078 15.2346C23.8385 15.2346 23.2954 14.6914 23.2954 14.0222C23.2954 13.3529 23.8385 12.8097 24.5078 12.8097L26.5997 12.8084L26.5999 10.7807C26.5999 10.1114 27.143 9.56823 27.8123 9.56823ZM12.734 0C17.4756 0 21.3312 3.85723 21.3312 8.59713C21.3312 13.337 17.4756 17.1943 12.734 17.1943H12.6839C10.39 17.1862 8.23986 16.2857 6.6281 14.6627C5.01472 13.038 4.13044 10.8814 4.13847 8.59228C4.13847 3.85723 7.99414 0 12.734 0ZM12.734 2.42492C9.33269 2.42492 6.56339 5.19417 6.56339 8.59713C6.55697 10.2445 7.19068 11.7883 8.34656 12.9539C9.50405 14.1179 11.0463 14.7629 12.6888 14.7694L12.734 15.9673V14.7694C16.137 14.7694 18.9063 12.0001 18.9063 8.59713C18.9063 5.19417 16.137 2.42492 12.734 2.42492Z" fill="#49494B"/>
</svg>
