<svg width="30" height="32" viewBox="0 0 30 32" fill="none" xmlns="http://www.w3.org/2000/svg">
<path fill-rule="evenodd" clip-rule="evenodd" d="M20.5298 0C21.1459 0 21.646 0.500091 21.646 1.11627L21.6467 2.37813C23.8199 2.52712 25.6248 3.2715 26.9022 4.55157C28.2968 5.95212 29.0306 7.96588 29.0232 10.3815V23.9599C29.0232 28.9191 25.8737 32 20.8059 32H8.21726C3.14938 32 0 28.8759 0 23.8467V10.3785C0 5.70087 2.80863 2.69832 7.38927 2.37864L7.39018 1.11627C7.39018 0.500091 7.89027 0 8.50645 0C9.12264 0 9.62273 0.500091 9.62273 1.11627L9.62228 2.35013H19.4127L19.4135 1.11627C19.4135 0.500091 19.9136 0 20.5298 0ZM26.7906 13.2524H2.23255V23.8467C2.23255 27.6659 4.35793 29.7675 8.21726 29.7675H20.8059C24.6652 29.7675 26.7906 27.7046 26.7906 23.9599L26.7906 13.2524ZM21.1366 22.6176C21.7528 22.6176 22.2528 23.1177 22.2528 23.7339C22.2528 24.3501 21.7528 24.8502 21.1366 24.8502C20.5204 24.8502 20.0143 24.3501 20.0143 23.7339C20.0143 23.1177 20.507 22.6176 21.1232 22.6176H21.1366ZM14.532 22.6176C15.1481 22.6176 15.6482 23.1177 15.6482 23.7339C15.6482 24.3501 15.1481 24.8502 14.532 24.8502C13.9158 24.8502 13.4097 24.3501 13.4097 23.7339C13.4097 23.1177 13.9024 22.6176 14.5186 22.6176H14.532ZM7.91349 22.6176C8.52967 22.6176 9.02976 23.1177 9.02976 23.7339C9.02976 24.3501 8.52967 24.8502 7.91349 24.8502C7.29731 24.8502 6.78977 24.3501 6.78977 23.7339C6.78977 23.1177 7.28391 22.6176 7.90009 22.6176H7.91349ZM21.1366 16.8328C21.7528 16.8328 22.2528 17.3329 22.2528 17.9491C22.2528 18.5653 21.7528 19.0654 21.1366 19.0654C20.5204 19.0654 20.0143 18.5653 20.0143 17.9491C20.0143 17.3329 20.507 16.8328 21.1232 16.8328H21.1366ZM14.532 16.8328C15.1481 16.8328 15.6482 17.3329 15.6482 17.9491C15.6482 18.5653 15.1481 19.0654 14.532 19.0654C13.9158 19.0654 13.4097 18.5653 13.4097 17.9491C13.4097 17.3329 13.9024 16.8328 14.5186 16.8328H14.532ZM7.91349 16.8328C8.52967 16.8328 9.02976 17.3329 9.02976 17.9491C9.02976 18.5653 8.52967 19.0654 7.91349 19.0654C7.29731 19.0654 6.78977 18.5653 6.78977 17.9491C6.78977 17.3329 7.28391 16.8328 7.90009 16.8328H7.91349ZM19.4127 4.58268H9.62228L9.62273 6.01448C9.62273 6.63067 9.12264 7.13076 8.50645 7.13076C7.89027 7.13076 7.39018 6.63067 7.39018 6.01448L7.38939 4.61647C4.05511 4.89656 2.23255 6.91771 2.23255 10.3785V11.0199H26.7906L26.7906 10.3785C26.7965 8.54039 26.3024 7.11156 25.3216 6.12924C24.4606 5.2657 23.2019 4.74997 21.6473 4.61718L21.646 6.01448C21.646 6.63067 21.1459 7.13076 20.5298 7.13076C19.9136 7.13076 19.4135 6.63067 19.4135 6.01448L19.4127 4.58268Z" fill="#49494B"/>
</svg>
