<svg width="45" height="45" viewBox="0 0 45 45" fill="none" xmlns="http://www.w3.org/2000/svg">
<g clip-path="url(#clip0_349_982)">
<path d="M44.7347 22.633C44.7347 10.2798 34.7205 0.265625 22.3673 0.265625C10.0142 0.265625 0 10.2798 0 22.633C0 33.797 8.17937 43.0506 18.8724 44.7286V29.0985H13.1932V22.633H18.8724V17.7052C18.8724 12.0994 22.2118 9.00287 27.3209 9.00287C29.7674 9.00287 32.3278 9.43973 32.3278 9.43973V14.9442H29.5074C26.729 14.9442 25.8622 16.6685 25.8622 18.4391V22.633H32.0657L31.074 29.0985H25.8622V44.7286C36.5553 43.0506 44.7347 33.797 44.7347 22.633Z" fill="white"/>
</g>
<defs>
<clipPath id="clip0_349_982">
<rect width="44.7347" height="44.7347" fill="white" transform="translate(0 0.265625)"/>
</clipPath>
</defs>
</svg>
