<svg width="24" height="22" viewBox="0 0 24 22" fill="none" xmlns="http://www.w3.org/2000/svg">
<path d="M18.0105 15.0104L12 21.0209L5.98956 15.0104C4.80082 13.8217 3.99129 12.3071 3.66332 10.6583C3.33536 9.00945 3.50369 7.30039 4.14704 5.74723C4.79039 4.19406 5.87985 2.86655 7.27767 1.93256C8.67548 0.998575 10.3189 0.500061 12 0.500061C13.6811 0.500061 15.3245 0.998575 16.7223 1.93256C18.1202 2.86655 19.2096 4.19406 19.853 5.74723C20.4963 7.30039 20.6647 9.00945 20.3367 10.6583C20.0087 12.3071 19.1992 13.8217 18.0105 15.0104ZM12 11.5C12.663 11.5 13.2989 11.2366 13.7678 10.7677C14.2366 10.2989 14.5 9.66302 14.5 8.99998C14.5 8.33694 14.2366 7.70106 13.7678 7.23222C13.2989 6.76338 12.663 6.49998 12 6.49998C11.337 6.49998 10.7011 6.76338 10.2322 7.23222C9.7634 7.70106 9.5 8.33694 9.5 8.99998C9.5 9.66302 9.7634 10.2989 10.2322 10.7677C10.7011 11.2366 11.337 11.5 12 11.5Z" stroke="#ACACAC"/>
</svg>
