<svg width="38" height="38" viewBox="0 0 38 38" fill="none" xmlns="http://www.w3.org/2000/svg">
<path d="M18.9998 3.16666C10.2598 3.16666 3.1665 10.26 3.1665 19C3.1665 27.74 10.2598 34.8333 18.9998 34.8333C27.7398 34.8333 34.8332 27.74 34.8332 19C34.8332 10.26 27.7398 3.16666 18.9998 3.16666ZM18.9998 31.6667C12.0173 31.6667 6.33317 25.9825 6.33317 19C6.33317 12.0175 12.0173 6.33332 18.9998 6.33332C25.9823 6.33332 31.6665 12.0175 31.6665 19C31.6665 25.9825 25.9823 31.6667 18.9998 31.6667Z" fill="#2AC9FC"/>
<path d="M26.9167 15.8333H19.6492L20.5675 10.4342V10.1175C20.5517 9.70582 20.3775 9.30999 20.0925 9.00916L19 7.91666L11.7167 15.8333C11.2892 16.245 11.0517 16.815 11.0834 17.4167V25.3333C11.0834 27.075 12.5084 28.5 14.25 28.5H22.9584C23.845 28.5475 24.6684 28.0408 25.0167 27.2333L28.3417 19.475C28.4684 19.2375 28.5317 18.9525 28.5 18.6833V17.4167C28.5 16.5458 27.7875 15.8333 26.9167 15.8333Z" fill="#2AC9FC"/>
</svg>
