<svg width="45" height="45" viewBox="0 0 45 45" fill="none" xmlns="http://www.w3.org/2000/svg">
<g clip-path="url(#clip0_349_985)">
<path d="M22.4831 4.29349C28.4594 4.29349 29.1671 4.31971 31.5174 4.42455C33.7017 4.52066 34.8812 4.88763 35.6676 5.19343C36.7073 5.59535 37.4587 6.08463 38.2363 6.86225C39.0227 7.6486 39.5032 8.39126 39.9051 9.43099C40.2109 10.2173 40.5779 11.4056 40.674 13.5812C40.7789 15.9402 40.8051 16.648 40.8051 22.6155C40.8051 28.5918 40.7789 29.2995 40.674 31.6498C40.5779 33.8341 40.2109 35.0137 39.9051 35.8C39.5032 36.8397 39.0139 37.5911 38.2363 38.3688C37.45 39.1551 36.7073 39.6357 35.6676 40.0376C34.8812 40.3434 33.693 40.7103 31.5174 40.8064C29.1583 40.9113 28.4506 40.9375 22.4831 40.9375C16.5068 40.9375 15.7991 40.9113 13.4488 40.8064C11.2644 40.7103 10.0849 40.3434 9.29857 40.0376C8.25884 39.6357 7.50743 39.1464 6.72982 38.3688C5.94347 37.5824 5.46292 36.8397 5.061 35.8C4.7552 35.0137 4.38824 33.8254 4.29213 31.6498C4.18728 29.2908 4.16107 28.583 4.16107 22.6155C4.16107 16.6392 4.18728 15.9315 4.29213 13.5812C4.38824 11.3969 4.7552 10.2173 5.061 9.43099C5.46292 8.39126 5.9522 7.63986 6.72982 6.86225C7.51617 6.07589 8.25884 5.59535 9.29857 5.19343C10.0849 4.88763 11.2732 4.52066 13.4488 4.42455C15.7991 4.31971 16.5068 4.29349 22.4831 4.29349ZM22.4831 0.265625C16.4107 0.265625 15.6505 0.291837 13.2653 0.396684C10.8887 0.501531 9.25488 0.885969 7.83945 1.43642C6.36285 2.01307 5.11343 2.77321 3.87274 4.02264C2.62331 5.26333 1.86317 6.51276 1.28651 7.98061C0.736067 9.40478 0.351628 11.0299 0.246781 13.4064C0.141934 15.8004 0.115723 16.5606 0.115723 22.633C0.115723 28.7054 0.141934 29.4655 0.246781 31.8508C0.351628 34.2273 0.736067 35.8612 1.28651 37.2766C1.86317 38.7532 2.62331 40.0026 3.87274 41.2433C5.11343 42.484 6.36285 43.2529 7.83071 43.8208C9.25488 44.3712 10.88 44.7557 13.2565 44.8605C15.6418 44.9654 16.4019 44.9916 22.4743 44.9916C28.5467 44.9916 29.3069 44.9654 31.6921 44.8605C34.0687 44.7557 35.7025 44.3712 37.118 43.8208C38.5858 43.2529 39.8352 42.484 41.0759 41.2433C42.3166 40.0026 43.0855 38.7532 43.6534 37.2853C44.2039 35.8612 44.5883 34.236 44.6932 31.8595C44.798 29.4742 44.8242 28.7141 44.8242 22.6417C44.8242 16.5693 44.798 15.8092 44.6932 13.4239C44.5883 11.0474 44.2039 9.41352 43.6534 7.99809C43.103 6.51276 42.3428 5.26333 41.0934 4.02264C39.8527 2.78195 38.6033 2.01307 37.1354 1.44515C35.7113 0.894707 34.0861 0.510268 31.7096 0.405421C29.3156 0.291837 28.5555 0.265625 22.4831 0.265625Z" fill="white"/>
<path d="M22.4831 11.1436C16.1399 11.1436 10.9937 16.2898 10.9937 22.633C10.9937 28.9763 16.1399 34.1225 22.4831 34.1225C28.8264 34.1225 33.9726 28.9763 33.9726 22.633C33.9726 16.2898 28.8264 11.1436 22.4831 11.1436ZM22.4831 30.0859C18.3679 30.0859 15.0303 26.7483 15.0303 22.633C15.0303 18.5178 18.3679 15.1802 22.4831 15.1802C26.5984 15.1802 29.936 18.5178 29.936 22.633C29.936 26.7483 26.5984 30.0859 22.4831 30.0859Z" fill="white"/>
<path d="M37.1093 10.6892C37.1093 12.1745 35.9036 13.3715 34.427 13.3715C32.9416 13.3715 31.7446 12.1658 31.7446 10.6892C31.7446 9.20384 32.9504 8.00684 34.427 8.00684C35.9036 8.00684 37.1093 9.21258 37.1093 10.6892Z" fill="white"/>
</g>
<defs>
<clipPath id="clip0_349_985">
<rect width="44.7347" height="44.7347" fill="white" transform="translate(0.115723 0.265625)"/>
</clipPath>
</defs>
</svg>
