<svg width="24" height="30" viewBox="0 0 24 30" fill="none" xmlns="http://www.w3.org/2000/svg">
<path d="M19.7782 20.4449L12 28.2231L4.22178 20.4449C2.68342 18.9065 1.63578 16.9465 1.21136 14.8127C0.786931 12.6789 1.00478 10.4672 1.83734 8.45721C2.66991 6.44723 4.07981 4.72928 5.88875 3.52059C7.69768 2.3119 9.82442 1.66676 12 1.66676C14.1756 1.66676 16.3023 2.3119 18.1113 3.52059C19.9202 4.72928 21.3301 6.44723 22.1627 8.45721C22.9952 10.4672 23.2131 12.6789 22.7887 14.8127C22.3642 16.9465 21.3166 18.9065 19.7782 20.4449ZM12 16.3333C12.9725 16.3333 13.9051 15.947 14.5927 15.2594C15.2804 14.5717 15.6667 13.6391 15.6667 12.6667C15.6667 11.6942 15.2804 10.7616 14.5927 10.0739C13.9051 9.3863 12.9725 8.99999 12 8.99999C11.0275 8.99999 10.0949 9.3863 9.40728 10.0739C8.71965 10.7616 8.33334 11.6942 8.33334 12.6667C8.33334 13.6391 8.71965 14.5717 9.40728 15.2594C10.0949 15.947 11.0275 16.3333 12 16.3333Z" stroke="#49494B" stroke-width="2"/>
</svg>
