<svg width="46" height="45" viewBox="0 0 46 45" fill="none" xmlns="http://www.w3.org/2000/svg">
<g clip-path="url(#clip0_349_983)">
<path fill-rule="evenodd" clip-rule="evenodd" d="M45.408 22.633C45.408 34.9861 35.3938 45.0003 23.0407 45.0003C10.6875 45.0003 0.67334 34.9861 0.67334 22.633C0.67334 10.2798 10.6875 0.265625 23.0407 0.265625C35.3938 0.265625 45.408 10.2798 45.408 22.633ZM23.8422 16.7782C21.6667 17.6831 17.3186 19.5559 10.7981 22.3968C9.73926 22.8179 9.1846 23.2298 9.1341 23.6326C9.04877 24.3133 9.9012 24.5813 11.062 24.9463C11.2199 24.996 11.3835 25.0474 11.5512 25.102C12.6932 25.4732 14.2295 25.9075 15.0281 25.9247C15.7526 25.9404 16.5611 25.6417 17.4538 25.0288C23.5461 20.9163 26.691 18.8376 26.8885 18.7928C27.0277 18.7612 27.2208 18.7214 27.3516 18.8377C27.4823 18.9539 27.4695 19.1741 27.4556 19.2331C27.3712 19.5931 24.0251 22.704 22.2934 24.3138C21.7536 24.8157 21.3707 25.1717 21.2925 25.253C21.1171 25.4351 20.9384 25.6074 20.7666 25.773C19.7057 26.7958 18.91 27.5628 20.8107 28.8153C21.7241 29.4172 22.4549 29.9149 23.1841 30.4114C23.9804 30.9537 24.7747 31.4946 25.8023 32.1683C26.0641 32.3399 26.3142 32.5182 26.5577 32.6918C27.4845 33.3525 28.317 33.946 29.3456 33.8514C29.9433 33.7964 30.5607 33.2344 30.8742 31.5582C31.6152 27.5969 33.0718 19.014 33.4084 15.4772C33.4379 15.1673 33.4008 14.7708 33.371 14.5967C33.3412 14.4226 33.2789 14.1746 33.0526 13.991C32.7846 13.7735 32.3709 13.7276 32.1859 13.7309C31.3446 13.7457 30.0539 14.1945 23.8422 16.7782Z" fill="white"/>
</g>
<defs>
<clipPath id="clip0_349_983">
<rect width="44.7347" height="44.7347" fill="white" transform="translate(0.67334 0.265625)"/>
</clipPath>
</defs>
</svg>
