<svg width="46" height="45" viewBox="0 0 46 45" fill="none" xmlns="http://www.w3.org/2000/svg">
<g clip-path="url(#clip0_349_984)">
<path d="M14.6309 40.8063C31.5078 40.8063 40.7413 26.8206 40.7413 14.6959C40.7413 14.3027 40.7326 13.9008 40.7151 13.5076C42.5113 12.2087 44.0614 10.5997 45.2926 8.75632C43.6197 9.5006 41.8436 9.98668 40.0249 10.198C41.9398 9.0501 43.3737 7.24685 44.0606 5.1225C42.2591 6.19015 40.2889 6.94329 38.2346 7.34963C36.8504 5.87888 35.0203 4.90507 33.0272 4.57876C31.0341 4.25245 28.989 4.59181 27.2081 5.54437C25.4272 6.49693 24.0097 8.00964 23.1747 9.84862C22.3397 11.6876 22.1338 13.7504 22.5888 15.7182C18.941 15.5351 15.3724 14.5875 12.1143 12.9368C8.8562 11.2861 5.98137 8.96907 3.67618 6.13602C2.50457 8.15603 2.14605 10.5464 2.6735 12.8212C3.20095 15.096 4.57478 17.0847 6.51579 18.383C5.0586 18.3368 3.63333 17.9444 2.35773 17.2384V17.352C2.35643 19.4719 3.08928 21.5268 4.43172 23.1674C5.77415 24.808 7.64332 25.9331 9.72148 26.3514C8.37162 26.7207 6.95489 26.7745 5.5809 26.5087C6.16732 28.3317 7.30828 29.9263 8.84454 31.0697C10.3808 32.2131 12.2357 32.8484 14.1504 32.8868C10.8998 35.4402 6.88442 36.8252 2.75091 36.8186C2.01787 36.8175 1.28554 36.7726 0.557861 36.6841C4.75706 39.3781 9.64186 40.8089 14.6309 40.8063Z" fill="white"/>
</g>
<defs>
<clipPath id="clip0_349_984">
<rect width="44.7347" height="44.7347" fill="white" transform="translate(0.557861 0.265625)"/>
</clipPath>
</defs>
</svg>
