<svg width="39" height="39" viewBox="0 0 39 39" fill="none" xmlns="http://www.w3.org/2000/svg">
<g clip-path="url(#clip0_349_987)">
<path d="M32.7128 5.68442C30.961 3.91639 28.8749 2.51469 26.5759 1.561C24.277 0.607306 21.8112 0.120691 19.3223 0.129512C8.89313 0.129512 0.393597 8.62666 0.384045 19.0582C0.384045 22.3993 1.25812 25.6496 2.90835 28.5274L0.231201 38.3404L10.2711 35.7086C13.0486 37.2201 16.1602 38.0124 19.3223 38.0132H19.3319C29.7634 38.0132 38.2606 29.5161 38.2701 19.0749C38.2725 16.5866 37.7825 14.1223 36.8283 11.8241C35.8741 9.52598 34.4746 7.43933 32.7105 5.68442H32.7128ZM19.3223 34.8083C16.5019 34.8092 13.7333 34.0503 11.3076 32.6112L10.7344 32.2673L4.7783 33.8291L6.36882 28.0187L5.99627 27.4192C4.41961 24.9124 3.58575 22.0101 3.59137 19.0487C3.59137 10.3891 10.6532 3.3249 19.3319 3.3249C21.3994 3.32119 23.4472 3.72677 25.3573 4.51825C27.2673 5.30973 29.0018 6.47147 30.4608 7.93647C31.9248 9.39577 33.0854 11.1305 33.8757 13.0406C34.666 14.9506 35.0702 16.9983 35.0652 19.0654C35.0556 27.756 27.9938 34.8083 19.3223 34.8083ZM27.9556 23.025C27.4851 22.7886 25.1614 21.6446 24.7244 21.4822C24.2897 21.327 23.9721 21.2458 23.6616 21.7187C23.344 22.1891 22.4365 23.2614 22.1642 23.5695C21.892 23.8871 21.6102 23.923 21.1373 23.6889C20.6669 23.4501 19.1408 22.9534 17.3353 21.3366C15.9263 20.0828 14.983 18.5304 14.7012 18.06C14.4289 17.5871 14.6749 17.334 14.9113 17.0975C15.1191 16.8874 15.3818 16.5435 15.6182 16.2712C15.8571 15.999 15.9359 15.7984 16.0911 15.4831C16.2463 15.1631 16.1723 14.8909 16.0553 14.6544C15.9359 14.418 14.9925 12.0847 14.5937 11.1438C14.2116 10.2148 13.8223 10.3438 13.531 10.3318C13.2587 10.3151 12.9411 10.3151 12.6235 10.3151C12.3836 10.3211 12.1476 10.3765 11.9302 10.478C11.7128 10.5796 11.5187 10.7249 11.3601 10.905C10.9255 11.3778 9.70989 12.5218 9.70989 14.855C9.70989 17.1883 11.4055 19.4308 11.6443 19.7484C11.8784 20.066 14.9734 24.84 19.7235 26.8938C20.846 27.3834 21.7296 27.6724 22.4198 27.8921C23.5542 28.2551 24.5787 28.2002 25.3955 28.0832C26.303 27.9446 28.192 26.9368 28.5908 25.8311C28.9825 24.723 28.9825 23.7773 28.8631 23.5791C28.7461 23.3784 28.4284 23.2614 27.9556 23.025Z" fill="white"/>
</g>
<defs>
<clipPath id="clip0_349_987">
<rect width="38.2109" height="38.2109" fill="white" transform="translate(0.231201 0.129395)"/>
</clipPath>
</defs>
</svg>
