<svg width="45" height="46" viewBox="0 0 45 46" fill="none" xmlns="http://www.w3.org/2000/svg">
<g clip-path="url(#clip0_349_986)">
<path d="M44.5545 13.7542C44.5545 13.7542 44.1176 10.6699 42.7721 9.31565C41.0683 7.53325 39.1636 7.52452 38.2899 7.41967C32.034 6.96533 22.6415 6.96533 22.6415 6.96533H22.624C22.624 6.96533 13.2315 6.96533 6.97559 7.41967C6.10186 7.52452 4.19714 7.53325 2.49338 9.31565C1.14784 10.6699 0.719718 13.7542 0.719718 13.7542C0.719718 13.7542 0.265381 17.3801 0.265381 20.9973V24.3874C0.265381 28.0046 0.71098 31.6306 0.71098 31.6306C0.71098 31.6306 1.14784 34.7148 2.48464 36.0691C4.1884 37.8515 6.42514 37.7903 7.42119 37.9826C11.0035 38.3233 22.6327 38.4282 22.6327 38.4282C22.6327 38.4282 32.034 38.4107 38.2899 37.9651C39.1636 37.8602 41.0683 37.8515 42.7721 36.0691C44.1176 34.7148 44.5545 31.6306 44.5545 31.6306C44.5545 31.6306 45.0001 28.0134 45.0001 24.3874V20.9973C45.0001 17.3801 44.5545 13.7542 44.5545 13.7542ZM18.0107 28.5026V15.9297L30.0943 22.238L18.0107 28.5026Z" fill="white"/>
</g>
<defs>
<clipPath id="clip0_349_986">
<rect width="44.7347" height="44.7347" fill="white" transform="translate(0.265381 0.333496)"/>
</clipPath>
</defs>
</svg>
